<mxfile><diagram id="zpGzf-oRHcjbW15I6Q2K" name="Page-1"><mxGraphModel dx="1374" dy="1158" grid="1" gridSize="10" guides="1" tooltips="1" connect="1" arrows="1" fold="1" page="0" pageScale="1" pageWidth="850" pageHeight="1100" math="0" shadow="0"><root><mxCell id="0"/><mxCell id="1" parent="0"/><mxCell id="CE9EN9VTLjrJtfSJjfUC-10" value="" style="rounded=0;whiteSpace=wrap;html=1;" parent="1" vertex="1"><mxGeometry x="240" y="40" width="510" height="400" as="geometry"/></mxCell><mxCell id="CE9EN9VTLjrJtfSJjfUC-3" value="" style="rounded=0;whiteSpace=wrap;html=1;" parent="1" vertex="1"><mxGeometry x="-320" y="40" width="510" height="400" as="geometry"/></mxCell><mxCell id="CE9EN9VTLjrJtfSJjfUC-1" value="Vector DB" style="shape=cylinder3;whiteSpace=wrap;html=1;boundedLbl=1;backgroundOutline=1;size=15;fillColor=#f8cecc;strokeColor=#b85450;align=left;verticalAlign=top;" parent="1" vertex="1"><mxGeometry x="-300" y="250" width="200" height="160" as="geometry"/></mxCell><mxCell id="CE9EN9VTLjrJtfSJjfUC-2" value="&lt;b&gt;API&lt;/b&gt;: add, search with distance function, delete" style="rounded=0;whiteSpace=wrap;html=1;fillColor=#dae8fc;strokeColor=#6c8ebf;align=left;" parent="1" vertex="1"><mxGeometry x="-280" y="220" width="160" height="40" as="geometry"/></mxCell><mxCell id="CE9EN9VTLjrJtfSJjfUC-4" value="&lt;b&gt;API&lt;/b&gt;: add, search, delete, retrieve chunks or docs&lt;div&gt;* Specify Brain --&amp;gt; Chunking params, distance function...&lt;/div&gt;" style="rounded=0;whiteSpace=wrap;html=1;fillColor=#dae8fc;strokeColor=#6c8ebf;align=left;verticalAlign=top;" parent="1" vertex="1"><mxGeometry x="-70" y="20" width="160" height="100" as="geometry"/></mxCell><mxCell id="CE9EN9VTLjrJtfSJjfUC-5" value="&lt;div&gt;&lt;b&gt;AI Workspace&lt;/b&gt;&lt;/div&gt;&lt;div&gt;A (sub-)system that contains data and provides search capabilities.&lt;/div&gt;" style="rounded=0;whiteSpace=wrap;html=1;fillColor=#f8cecc;strokeColor=#b85450;align=left;verticalAlign=top;" parent="1" vertex="1"><mxGeometry x="-320" y="40" width="160" height="110" as="geometry"/></mxCell><mxCell id="CE9EN9VTLjrJtfSJjfUC-6" value="Inner Workspace logic:&lt;div&gt;* Store documents&lt;/div&gt;&lt;div&gt;* Chunk docs and store them&lt;/div&gt;&lt;div&gt;* Retrieve chunks and/or docs&lt;/div&gt;&lt;div&gt;* Load Workspace, for ex. based on a directory containing documents or a URL that will be scraped.&lt;/div&gt;" style="rounded=0;whiteSpace=wrap;html=1;align=left;verticalAlign=top;" parent="1" vertex="1"><mxGeometry x="-30" y="130" width="180" height="190" as="geometry"/></mxCell><mxCell id="CE9EN9VTLjrJtfSJjfUC-9" value="&lt;div&gt;&lt;b&gt;LLM Wrapper&lt;/b&gt;&lt;/div&gt;&lt;div&gt;&lt;b&gt;&lt;br&gt;&lt;/b&gt;&lt;/div&gt;&lt;div&gt;A wrapper around a model that handles context length, prompt format etc.&lt;/div&gt;" style="rounded=0;whiteSpace=wrap;html=1;fillColor=#f8cecc;strokeColor=#b85450;align=left;verticalAlign=top;" parent="1" vertex="1"><mxGeometry x="240" y="40" width="160" height="110" as="geometry"/></mxCell><mxCell id="CE9EN9VTLjrJtfSJjfUC-11" value="Inner LLM Wrapper logic:&lt;div&gt;* Provide prompt format&lt;/div&gt;&lt;div&gt;* Provide information of actual LLM capabilities, context length...&lt;/div&gt;" style="rounded=0;whiteSpace=wrap;html=1;align=left;verticalAlign=top;" parent="1" vertex="1"><mxGeometry x="260" y="170" width="180" height="180" as="geometry"/></mxCell><mxCell id="CE9EN9VTLjrJtfSJjfUC-12" value="&lt;b&gt;API&lt;/b&gt;: generate, embed, chat,...&lt;div&gt;* Specify LLM&lt;/div&gt;" style="rounded=0;whiteSpace=wrap;html=1;fillColor=#dae8fc;strokeColor=#6c8ebf;align=left;verticalAlign=top;" parent="1" vertex="1"><mxGeometry x="410" y="20" width="160" height="110" as="geometry"/></mxCell><mxCell id="CE9EN9VTLjrJtfSJjfUC-13" value="&lt;b&gt;API&lt;/b&gt;: OpenAI chat, completion" style="rounded=0;whiteSpace=wrap;html=1;fillColor=#dae8fc;strokeColor=#6c8ebf;align=left;verticalAlign=top;" parent="1" vertex="1"><mxGeometry x="580" y="20" width="160" height="110" as="geometry"/></mxCell><mxCell id="CE9EN9VTLjrJtfSJjfUC-14" value="Vector DB implementation:&lt;div&gt;* Milvus&lt;/div&gt;&lt;div&gt;* Chroma&lt;/div&gt;&lt;div&gt;* ...&lt;/div&gt;" style="rounded=0;whiteSpace=wrap;html=1;fillColor=#d5e8d4;strokeColor=#82b366;align=left;verticalAlign=top;" parent="1" vertex="1"><mxGeometry x="-240" y="300" width="120" height="90" as="geometry"/></mxCell><mxCell id="CE9EN9VTLjrJtfSJjfUC-15" value="Actual LLM:&lt;div&gt;* Llama&lt;/div&gt;&lt;div&gt;* Openai (external)&lt;/div&gt;&lt;div&gt;* Mixtral&lt;/div&gt;&lt;div&gt;* ...&lt;/div&gt;" style="rounded=0;whiteSpace=wrap;html=1;align=left;verticalAlign=top;fillColor=#d5e8d4;strokeColor=#82b366;" parent="1" vertex="1"><mxGeometry x="480" y="210" width="210" height="160" as="geometry"/></mxCell><mxCell id="CE9EN9VTLjrJtfSJjfUC-16" value="" style="rounded=0;whiteSpace=wrap;html=1;" parent="1" vertex="1"><mxGeometry x="-320" y="-280" width="1070" height="270" as="geometry"/></mxCell><mxCell id="CE9EN9VTLjrJtfSJjfUC-17" value="&lt;div&gt;&lt;b&gt;AI Orchestration&lt;/b&gt;&lt;/div&gt;&lt;div&gt;A (sub-)system that executes different chains, using sub-services.&lt;/div&gt;" style="rounded=0;whiteSpace=wrap;html=1;fillColor=#f8cecc;strokeColor=#b85450;align=left;verticalAlign=top;" parent="1" vertex="1"><mxGeometry x="-320" y="-280" width="160" height="110" as="geometry"/></mxCell><mxCell id="CE9EN9VTLjrJtfSJjfUC-18" value="&lt;b&gt;API&lt;/b&gt;: OpenAI chat, completion" style="rounded=0;whiteSpace=wrap;html=1;fillColor=#dae8fc;strokeColor=#6c8ebf;align=left;verticalAlign=top;" parent="1" vertex="1"><mxGeometry x="240" y="-300" width="160" height="90" as="geometry"/></mxCell><mxCell id="CE9EN9VTLjrJtfSJjfUC-19" value="&lt;b&gt;API&lt;/b&gt;: generate, embed, chat,...&lt;div&gt;* Specify chain&lt;/div&gt;" style="rounded=0;whiteSpace=wrap;html=1;fillColor=#dae8fc;strokeColor=#6c8ebf;align=left;verticalAlign=top;" parent="1" vertex="1"><mxGeometry x="70" y="-300" width="160" height="90" as="geometry"/></mxCell><mxCell id="CE9EN9VTLjrJtfSJjfUC-20" value="Chain &quot;Simple Rag&quot;&lt;div&gt;* In: Conversation history, question&lt;/div&gt;&lt;div&gt;* Params: Brain, LLM, Prompts&lt;/div&gt;&lt;div&gt;* Send question to Brain&lt;/div&gt;&lt;div&gt;* Use Brain answer to fill context in prompt&lt;/div&gt;&lt;div&gt;* Send prompt to LLM&lt;/div&gt;&lt;div&gt;* Send out answer&lt;/div&gt;" style="rounded=0;whiteSpace=wrap;html=1;align=left;verticalAlign=top;fillColor=#d5e8d4;strokeColor=#82b366;" parent="1" vertex="1"><mxGeometry x="-110" y="-200" width="190" height="170" as="geometry"/></mxCell><mxCell id="CE9EN9VTLjrJtfSJjfUC-21" value="" style="rounded=0;whiteSpace=wrap;html=1;" parent="1" vertex="1"><mxGeometry x="-320" y="-630" width="1070" height="270" as="geometry"/></mxCell><mxCell id="CE9EN9VTLjrJtfSJjfUC-22" value="&lt;div&gt;&lt;b&gt;AI UI&lt;/b&gt;&lt;/div&gt;&lt;div&gt;&lt;br&gt;&lt;/div&gt;" style="rounded=0;whiteSpace=wrap;html=1;fillColor=#f8cecc;strokeColor=#b85450;align=left;verticalAlign=top;" parent="1" vertex="1"><mxGeometry x="-320" y="-630" width="160" height="110" as="geometry"/></mxCell><mxCell id="CE9EN9VTLjrJtfSJjfUC-26" value="UI &quot;Conversation&quot;&lt;div&gt;* Param: Chain, Brains, LLMs, Prompts&lt;/div&gt;&lt;div&gt;* Have a conversation with a chain, get answer and Chain-of-thoughts&lt;/div&gt;&lt;div&gt;* Visualize Answers and chain-of-thoughts side by side&lt;/div&gt;" style="rounded=0;whiteSpace=wrap;html=1;align=left;verticalAlign=top;fillColor=#d5e8d4;strokeColor=#82b366;" parent="1" vertex="1"><mxGeometry x="-100" y="-540" width="190" height="120" as="geometry"/></mxCell><mxCell id="CE9EN9VTLjrJtfSJjfUC-27" value="&lt;div&gt;UI &quot;Conversation&quot;&lt;div&gt;* Param: Chain, Brains, LLMs, Prompts&lt;/div&gt;&lt;div&gt;* Have a conversation with a chain using LLM1 and LLM2, get answers and Chain-of-thoughts side by side to compare them&lt;/div&gt;&lt;/div&gt;" style="rounded=0;whiteSpace=wrap;html=1;align=left;verticalAlign=top;fillColor=#d5e8d4;strokeColor=#82b366;" parent="1" vertex="1"><mxGeometry x="110" y="-540" width="190" height="120" as="geometry"/></mxCell><mxCell id="CE9EN9VTLjrJtfSJjfUC-28" value="Chain &quot;Advanced Rag&quot;&lt;div&gt;* Like simple RAG but adding features like&amp;nbsp;&lt;/div&gt;&lt;div&gt;* Create Brain-request by asking LLM based on conversation&lt;/div&gt;&lt;div&gt;* Re-rank brain results&lt;/div&gt;&lt;div&gt;* &amp;nbsp;&lt;/div&gt;" style="rounded=0;whiteSpace=wrap;html=1;align=left;verticalAlign=top;fillColor=#d5e8d4;strokeColor=#82b366;" parent="1" vertex="1"><mxGeometry x="100" y="-200" width="190" height="170" as="geometry"/></mxCell><mxCell id="00By0G_2dAAMdcYObaQ6-2" value="" style="rounded=0;whiteSpace=wrap;html=1;" parent="1" vertex="1"><mxGeometry x="820" y="40" width="410" height="400" as="geometry"/></mxCell><mxCell id="00By0G_2dAAMdcYObaQ6-3" value="&lt;div&gt;&lt;b&gt;Prompt Lib&lt;/b&gt;&lt;/div&gt;&lt;div&gt;&lt;b&gt;&lt;br&gt;&lt;/b&gt;&lt;/div&gt;&lt;div&gt;A library of prompts. Prompts have names &amp;amp; descriptions and can be referenced by Chains.&lt;/div&gt;" style="rounded=0;whiteSpace=wrap;html=1;fillColor=#f8cecc;strokeColor=#b85450;align=left;verticalAlign=top;" parent="1" vertex="1"><mxGeometry x="820" y="40" width="160" height="110" as="geometry"/></mxCell><mxCell id="00By0G_2dAAMdcYObaQ6-4" value="&lt;b&gt;API&lt;/b&gt;: Reference a prompt by it's name" style="rounded=0;whiteSpace=wrap;html=1;fillColor=#dae8fc;strokeColor=#6c8ebf;align=left;verticalAlign=top;" parent="1" vertex="1"><mxGeometry x="1000" y="20" width="160" height="110" as="geometry"/></mxCell><mxCell id="ZuFVSwHULJ2QRQUlA8EJ-1" value="" style="rounded=0;whiteSpace=wrap;html=1;" parent="1" vertex="1"><mxGeometry x="1280" y="40" width="410" height="400" as="geometry"/></mxCell><mxCell id="ZuFVSwHULJ2QRQUlA8EJ-2" value="&lt;div&gt;&lt;b&gt;Agents&lt;/b&gt;&lt;/div&gt;&lt;div&gt;&lt;b&gt;&lt;br&gt;&lt;/b&gt;&lt;/div&gt;&lt;div&gt;&lt;br&gt;&lt;/div&gt;" style="rounded=0;whiteSpace=wrap;html=1;fillColor=#f8cecc;strokeColor=#b85450;align=left;verticalAlign=top;" parent="1" vertex="1"><mxGeometry x="1280" y="40" width="160" height="110" as="geometry"/></mxCell><mxCell id="ZuFVSwHULJ2QRQUlA8EJ-3" value="&lt;b&gt;API&lt;/b&gt;:&amp;nbsp;" style="rounded=0;whiteSpace=wrap;html=1;fillColor=#dae8fc;strokeColor=#6c8ebf;align=left;verticalAlign=top;" parent="1" vertex="1"><mxGeometry x="1460" y="20" width="160" height="110" as="geometry"/></mxCell></root></mxGraphModel></diagram></mxfile>